<svg width="2519" height="243" viewBox="0 0 2519 243" fill="none" xmlns="http://www.w3.org/2000/svg">
<path d="M71.7376 223.653C53.5551 228.953 32.3166 232.139 12.378 236.636C-3.18386 240.146 -2.81142 242.743 13.1413 242.744L2512.16 242.997C2518.93 242.998 2520.62 234.717 2514.59 231.613C2511.64 230.09 2505.18 229.119 2501.16 227.826C2490.75 224.471 2481.61 220.799 2470.1 217.779C2454.91 213.791 2441.64 210.576 2424.78 207.269L2419.37 206.209L2419.34 206.203C2397.51 201.922 2375.54 197.616 2353.9 193.205C2315.85 185.447 2284.36 175.04 2246.94 167.084C2210.89 159.42 2175.84 150.451 2141.77 141.891C2106.82 133.111 2073.34 124.501 2041.04 114.688C1993.32 100.192 1932.38 94.5955 1867.88 94.5955C1802.54 94.5955 1739.74 102.377 1674.21 102.246C1589.77 102.077 1502.92 94.5116 1435.33 77.6326C1385.43 65.1711 1352.01 45.5969 1319.49 28.5213C1302.43 19.566 1280.44 9.4713 1253.05 3.48263C1220.8 -3.56853 1186.22 1.69611 1154.24 5.22142C1123.69 8.58916 1095.74 12.411 1070.06 18.784C1032.67 28.0639 998.385 40.3255 969.087 52.1689C926.716 69.2969 886.838 86.8488 846.724 104.505L842.813 106.226C819.977 116.276 797.71 126.632 770.262 135.477C746 143.294 718.457 150.257 691.836 157.192C680.244 160.212 668.905 163.155 657.059 166.079C636.179 171.235 601.392 170.73 576.834 171.759C552.099 172.796 521.297 175.345 495.769 174.194C465.078 172.809 434.868 169.589 403.792 169.711C366.992 169.856 325.876 176.054 292.747 180.685C245.677 187.265 199.548 195.786 156.04 204.487L155.874 204.521C127.125 210.27 96.9207 216.311 71.7376 223.653Z" fill="#083612"/>
</svg>
